<svg width="1920" height="553" viewBox="0 0 1920 553" fill="none" xmlns="http://www.w3.org/2000/svg">
<path d="M1952 0H-32.996V1.985H32.4941L-22.5399 51.247H-32.9778V53.232H-24.7567L-32.996 60.6095V63.2693L-21.7812 53.2288H58.4726L8.0255 102.494H-32.9619V104.479H5.99167L-32.7578 142.32L-32.996 142.553V145.327L8.83578 104.476H93.9929L48.1316 153.739H-32.942V155.724H46.2847L0.423363 204.987H-32.9246V206.972H-1.4215L-32.7844 240.659L-32.9972 240.888V243.8L1.28485 206.972H96.1109L54.8377 256.234H-32.9063V258.219H53.1746L11.897 307.487H-32.8904V309.472H10.234L-31.0392 358.732H-32.8706V360.717H-32.7015L-32.9976 361.071V364.162L-30.1126 360.717H79.1435L42.4541 409.978H-32.8547V411.963H40.9784L4.28894 461.226H-32.8348V463.211H2.80933L-32.8412 511.083L-33 511.294V514.613L-32.8214 514.375V514.459H90.7955L58.6933 563.722H-32.7975V565.707H59.0042L59.5385 566.056L59.7664 565.707H189.854L190.43 565.993L190.589 565.707H320.693L321.293 565.964L321.412 565.707H451.543L452.17 565.931L452.252 565.707H1496.92L1497.01 565.923L1497.6 565.707H1627.73L1627.87 565.985L1628.46 565.707H1758.56L1758.74 566.027L1759.31 565.707H1889.38L1889.61 566.056L1890.14 565.707H1952V563.722H1890.45L1858.35 514.456H1952V512.471H1857.06L1824.95 463.209H1943.86L1952 474.133V470.814L1946.34 463.209H1952V461.224H1944.86L1908.17 411.961H1952V409.976H1906.69L1870 360.714H1952V358.729H1868.53L1831.84 309.466H1936.32L1952 328.175V325.088L1938.91 309.469H1952V307.484H1937.25L1895.97 258.216H1952V256.231H1894.31L1853.03 206.968H1947.86L1952 211.415V208.506L1950.57 206.97H1952V204.985H1948.72L1902.86 155.722H1952V153.737H1901.01L1855.15 104.474H1940.31L1952 115.89V113.111L1943.15 104.473H1952V102.488H1941.12L1890.67 53.2308H1952V51.2459H1888.64L1838.19 1.98257H1913.68L1952 36.2833V33.6234L1916.65 1.98015H1952V0ZM322.342 563.719L345.272 514.456H469.219L450.875 563.719H322.342ZM191.699 563.719L219.214 514.456H343.083L320.153 563.719L191.699 563.719ZM61.0622 563.719L93.1632 514.456H216.942L189.426 563.719L61.0622 563.719ZM-19.5655 51.247L35.4665 1.98374H110.951L60.5052 51.247H-19.5655ZM973.482 53.232V102.495H887.92L892.506 53.232H973.482ZM809.727 51.247L818.898 1.98374H895.284L890.698 51.247H809.727ZM973.482 514.456V563.719H844.983L849.569 514.456H973.482ZM800.186 102.494L809.357 53.2308H890.514L885.928 102.494H800.186ZM143.3 153.74L184.574 104.477H269.976L233.287 153.74H143.3ZM567.49 256.234L585.834 206.971H681.22L667.462 256.234H567.49ZM438.499 309.469L415.568 358.732H306.196L333.713 309.469H438.499ZM465.465 256.234L488.396 206.971H583.718L565.373 256.234H465.465ZM545.551 309.469L527.207 358.732H417.757L440.687 309.469H545.551ZM441.611 307.484L464.543 258.216H564.635L546.289 307.484H441.611ZM363.449 256.231L390.965 206.968H486.209L463.279 256.231H363.449ZM462.355 258.216L439.423 307.484H334.821L362.339 258.216H462.355ZM529.323 358.73L547.668 309.467H652.595L638.836 358.73H529.323ZM548.406 307.483L566.752 258.215H666.909L653.15 307.483H548.406ZM388.694 206.969L361.177 256.232H261.436L293.538 206.969H388.694ZM416.834 360.714H526.467L508.123 409.976H393.902L416.834 360.714ZM528.585 360.714H638.284L624.526 409.976H510.239L528.585 360.714ZM681.776 204.985H586.576L604.92 155.722H695.535L681.776 204.985ZM584.458 204.985H489.319L512.249 155.722H602.801L584.458 204.985ZM487.133 204.985H392.071L419.587 155.722H510.061L487.133 204.985ZM389.802 204.985H294.83L326.933 155.722H417.317L389.802 204.985ZM197.598 204.985L234.286 155.722H324.567L292.464 204.987L197.598 204.985ZM360.069 258.216L332.551 307.484H228.037L260.143 258.216H360.069ZM331.442 309.467L303.926 358.73H194.643L226.745 309.467H331.442ZM305.089 360.716H414.646L391.714 409.978H277.572L305.089 360.716ZM623.971 411.962L610.213 461.225H491.157L509.501 411.962H623.971ZM740.549 411.962L731.379 461.225H612.271L626.029 411.962H740.549ZM626.584 409.977L640.342 360.715H750.091L740.92 409.977H626.584ZM640.896 358.731L654.655 309.468H759.632L750.461 358.731H640.896ZM655.209 307.484L668.968 258.217H769.174L760.003 307.484H655.209ZM669.522 256.232L683.28 206.969H778.716L769.545 256.232H669.522ZM683.834 204.985L697.592 155.722H788.258L779.087 204.985H683.834ZM605.657 153.74L624.001 104.477H709.845L696.087 153.74H605.657ZM513.173 153.74L536.104 104.477H621.884L603.54 153.74H513.173ZM420.697 153.74L448.214 104.477H533.916L510.986 153.74H420.697ZM328.226 153.74L360.329 104.477H445.941L418.425 153.74H328.226ZM235.761 153.74L272.451 104.477H357.961L325.859 153.74H235.761ZM291.171 206.971L259.068 256.234H159.427L196.117 206.971H291.171ZM302.816 360.716L275.3 409.978H161.247L193.35 360.716H302.816ZM390.791 411.962L367.861 461.225H248.947L276.465 411.962H390.791ZM392.979 411.962H507.385L489.04 461.225H370.048L392.979 411.962ZM698.147 153.74L711.904 104.477H797.799L788.628 153.74H698.147ZM231.812 155.725L195.122 204.988H100.364L141.637 155.725H231.812ZM257.775 258.219L225.67 307.487H121.26L157.953 258.219H257.775ZM224.379 309.469L192.276 358.732H83.0933L119.782 309.469H224.379ZM274.193 411.962L246.677 461.225H127.851L159.954 411.962H274.193ZM490.419 463.209H609.66L595.9 512.471H472.073L490.419 463.209ZM611.719 463.209H731.008L721.838 512.472H597.959L611.719 463.209ZM852.35 463.209L847.762 512.471H723.852L733.023 463.209L852.35 463.209ZM733.395 461.224L742.566 411.962H857.119L852.533 461.224H733.395ZM742.937 409.977L752.108 360.715H861.889L857.304 409.977H742.937ZM752.478 358.731L761.649 309.468H866.661L862.074 358.731H752.478ZM762.02 307.484L771.193 258.217H871.433L866.847 307.484H762.02ZM771.562 256.232L780.733 206.969H876.202L871.616 256.232H771.562ZM781.104 204.985L790.275 155.722H880.973L876.387 204.985H781.104ZM790.646 153.738L799.816 104.475H885.744L881.157 153.738H790.646ZM798.169 102.491H712.458L726.216 53.2284H807.34L798.169 102.491ZM710.4 102.491H624.739L643.083 53.2284H724.157L710.4 102.491ZM622.624 102.491H537.027L559.957 53.2284H640.967L622.624 102.491ZM534.841 102.491H449.321L476.838 53.2284H557.77L534.841 102.491ZM447.051 102.491H361.621L393.723 53.2284H474.567L447.051 102.491ZM359.255 102.491H273.926L310.615 53.2284H391.356L359.255 102.491ZM271.457 102.491H186.237L227.51 53.2308H308.141L271.457 102.491ZM183.648 102.491H98.5469L144.409 53.2308H224.924L183.648 102.491ZM181.989 104.476L140.711 153.74H50.8387L96.7008 104.477L181.989 104.476ZM193.647 206.97L156.958 256.233H57.4273L98.7009 206.97H193.647ZM190.983 360.715L158.879 409.978H44.9286L81.6176 360.716L190.983 360.715ZM126.558 463.209H245.567L218.05 512.471H94.4558L126.558 463.209ZM247.838 463.209H366.938L344.007 512.471H220.322L247.838 463.209ZM369.124 463.209H488.3L469.957 512.471H346.194L369.124 463.209ZM721.465 514.456L712.295 563.719H583.647L597.405 514.456H721.465ZM847.577 514.456L842.991 563.719H714.31L723.481 514.456H847.577ZM973.482 463.21V512.471H849.754L854.34 463.209L973.482 463.21ZM973.482 411.963V461.225H854.525L859.11 411.963H973.482ZM973.482 360.716V409.978H859.295L863.882 360.716L973.482 360.716ZM973.482 309.469V358.732H864.066L868.652 309.469H973.482ZM973.482 258.219V307.486H868.837L873.423 258.219H973.482ZM973.482 206.972V256.234H873.608L878.194 206.972H973.482ZM973.482 155.725V204.987H878.379L882.965 155.725H973.482ZM973.482 104.478V153.741H883.15L887.736 104.478H973.482ZM726.771 51.2474L740.529 1.98412H816.881L807.71 51.2474H726.771ZM643.822 51.2474L662.167 1.98412H738.47L724.712 51.2474H643.822ZM560.881 51.2474L583.811 1.98412H660.05L641.704 51.247L560.881 51.2474ZM477.947 51.2474L505.464 1.98412H581.625L558.692 51.247L477.947 51.2474ZM395.018 51.2474L427.121 1.98412H503.191L475.675 51.2474H395.018ZM312.096 51.2474L348.783 1.98412H424.753L392.651 51.2474H312.096ZM229.175 51.2474L270.45 1.98412H346.311L309.622 51.2474H229.175ZM146.257 51.2474L192.118 1.98412H267.861L226.583 51.247L146.257 51.2474ZM63.3454 51.2474L113.793 1.98412H189.405L143.55 51.247L63.3454 51.2474ZM61.3155 53.2324H141.701L95.8393 102.494H10.868L61.3155 53.2324ZM139.048 155.726L97.7755 204.987H3.13447L48.9922 155.724L139.048 155.726ZM155.478 258.22L118.788 307.487H14.4851L55.7631 258.22H155.478ZM117.308 309.469L80.6184 358.732H-28.4496L12.8236 309.469H117.308ZM157.586 411.962L125.483 461.225H6.76344L43.4489 411.962H157.586ZM124.191 463.209L92.0885 512.471H-31.4041L5.28422 463.209L124.191 463.209ZM471.335 514.456H595.345L581.588 563.719H452.99L471.335 514.456ZM892.691 51.247L897.277 1.98374H973.482V51.247H892.691ZM1759.72 563.719L1732.2 514.456H1855.98L1888.08 563.719L1759.72 563.719ZM1628.99 563.719L1606.06 514.456H1729.93L1757.45 563.719L1628.99 563.719ZM1498.27 563.719L1479.93 514.456H1603.88L1626.81 563.719L1498.27 563.719ZM1058.45 51.247L1053.86 1.98374H1130.25L1139.42 51.247H1058.45ZM975.663 102.494V53.2308H1056.64L1061.23 102.494H975.663ZM1805.6 51.247L1759.74 1.98374H1835.35L1885.8 51.247H1805.6ZM1822.59 463.209L1854.69 512.472H1731.1L1703.58 463.209H1822.59ZM1063.22 102.496L1058.63 53.2308H1139.79L1148.96 102.494L1063.22 102.496ZM1765.5 102.496L1724.22 53.2308H1804.74L1850.6 102.494L1765.5 102.496ZM1672.68 411.964L1700.2 461.227H1581.29L1558.35 411.964H1672.68ZM1383.77 256.236L1365.43 206.973H1460.75L1483.68 256.236H1383.77ZM1485.87 256.236L1462.94 206.971H1558.18L1585.7 256.234L1485.87 256.236ZM1508.46 309.471L1531.39 358.734H1421.94L1403.6 309.471H1508.46ZM1402.86 307.486L1384.51 258.218H1484.6L1507.54 307.486H1402.86ZM1509.72 307.486L1486.79 258.218H1586.81L1614.32 307.486H1509.72ZM1363.31 206.972L1381.65 256.235H1281.68L1267.93 206.972H1363.31ZM1382.39 258.219L1400.74 307.487H1296L1282.24 258.219H1382.39ZM1401.48 309.47L1419.82 358.733H1310.31L1296.55 309.47H1401.48ZM1420.56 360.717L1438.9 409.979H1324.62L1310.86 360.717H1420.56ZM1532.31 360.717L1555.24 409.979H1441.02L1422.68 360.717H1532.31ZM1533.58 358.732L1510.64 309.468H1615.43L1642.95 358.732H1533.58ZM1587.97 256.234L1560.45 206.971H1655.61L1687.71 256.234H1587.97ZM1559.34 204.987L1531.83 155.724H1622.21L1654.32 204.987H1559.34ZM1462.01 204.987L1439.08 155.724H1529.56L1557.07 204.987H1462.01ZM1364.69 204.987L1346.34 155.724H1436.89L1459.82 204.987H1364.69ZM1267.37 204.987L1253.61 155.724H1344.23L1362.57 204.987H1267.37ZM1439.64 411.962L1457.99 461.224H1338.93L1325.17 411.962H1439.64ZM1644.06 360.715L1671.57 409.978H1557.43L1534.5 360.715H1644.06ZM1616.6 307.485L1589.08 258.217H1689L1721.11 307.485H1616.6ZM1656.68 204.987L1624.58 155.724H1714.86L1751.55 204.987H1656.68ZM1623.29 153.74L1591.18 104.477H1676.69L1713.38 153.74H1623.29ZM1530.72 153.74L1503.2 104.477H1588.82L1620.92 153.74H1530.72ZM1438.16 153.74L1415.23 104.477H1500.93L1528.45 153.74H1438.16ZM1345.6 153.74L1327.26 104.477H1413.04L1435.97 153.74H1345.6ZM1253.06 153.74L1239.3 104.477H1325.14L1343.49 153.74H1253.06ZM1251.55 155.725L1265.31 204.987H1170.06L1160.89 155.725H1251.55ZM1265.86 206.972L1279.62 256.234H1179.6L1170.43 206.972H1265.86ZM1280.18 258.219L1293.94 307.486H1189.14L1179.97 258.219H1280.18ZM1294.49 309.469L1308.25 358.732H1198.69L1189.52 309.469H1294.49ZM1308.8 360.716L1322.56 409.979H1208.22L1199.05 360.716H1308.8ZM1323.12 411.963L1336.87 461.225H1217.77L1208.6 411.963H1323.12ZM1556.16 411.963L1579.1 461.225H1460.11L1441.76 411.963H1556.16ZM1645.22 358.732L1617.7 309.469H1722.4L1754.5 358.732H1645.22ZM1690.08 256.234L1657.97 206.972H1753.03L1789.72 256.234H1690.08ZM1715.86 153.741L1679.17 104.478H1764.57L1805.84 153.741H1715.86ZM1160.52 153.741L1151.35 104.478H1237.24L1251 153.741H1160.52ZM1337.43 463.21L1351.18 512.472H1227.31L1218.14 463.21H1337.43ZM1458.73 463.21L1477.07 512.472H1353.25L1339.49 463.21H1458.73ZM1702.47 461.224L1674.95 411.962H1789.19L1821.29 461.224H1702.47ZM1673.85 409.978L1646.33 360.715H1755.8L1787.9 409.978H1673.85ZM1723.48 307.485L1691.37 258.217H1791.19L1827.89 307.485H1723.48ZM1754.02 204.987L1717.33 155.724H1807.51L1848.78 204.987L1754.02 204.987ZM1677.69 102.493L1641 53.2304H1721.63L1762.91 102.494L1677.69 102.493ZM1589.89 102.493L1557.79 53.2304H1638.53L1675.22 102.493H1589.89ZM1502.1 102.493L1474.58 53.2304H1555.42L1587.52 102.493H1502.1ZM1414.31 102.493L1391.38 53.2304H1472.31L1499.82 102.493H1414.31ZM1326.52 102.493L1308.18 53.2308H1389.19L1412.12 102.494L1326.52 102.493ZM1238.75 102.493L1224.99 53.2304H1306.06L1324.41 102.493H1238.75ZM1150.98 102.493L1141.8 53.2308H1222.93L1236.69 102.494L1150.98 102.493ZM1149.33 104.478L1158.5 153.741H1067.98L1063.4 104.478H1149.33ZM1158.87 155.725L1168.04 204.988H1072.76L1068.17 155.725H1158.87ZM1168.41 206.972L1177.58 256.235H1077.53L1072.94 206.972H1168.41ZM1177.95 258.219L1187.13 307.487H1082.3L1077.71 258.219H1177.95ZM1187.5 309.47L1196.67 358.733H1087.07L1082.49 309.47H1187.5ZM1197.04 360.717L1206.21 409.979H1091.84L1087.26 360.716L1197.04 360.717ZM1206.58 411.963L1215.75 461.226H1096.61L1092.03 411.963H1206.58ZM1216.12 463.21L1225.29 512.473H1101.38L1096.8 463.21H1216.12ZM1225.66 514.457L1234.83 563.72H1106.15L1101.57 514.456L1225.66 514.457ZM1351.74 514.457L1365.5 563.72H1236.85L1227.68 514.457H1351.74ZM1580.02 463.21L1602.95 512.473H1479.19L1460.84 463.21H1580.02ZM1701.31 463.21L1728.82 512.473H1605.14L1582.21 463.21H1701.31ZM1756.87 358.733L1724.77 309.47H1829.36L1866.05 358.733H1756.87ZM1792.19 256.235L1755.5 206.972H1850.44L1891.72 256.235H1792.19ZM1808.43 153.741L1767.16 104.477H1852.44L1898.31 153.74L1808.43 153.741ZM1722.56 51.2478L1681.29 1.98374H1757.03L1802.89 51.247L1722.56 51.2478ZM1639.53 51.2478L1602.84 1.98451H1678.7L1719.97 51.2478H1639.53ZM1556.5 51.2478L1524.39 1.98451H1600.36L1637.05 51.2478H1556.5ZM1473.47 51.2478L1445.96 1.98451H1522.03L1554.13 51.2478H1473.47ZM1390.45 51.2478L1367.52 1.98451H1443.68L1471.2 51.2478H1390.45ZM1307.44 51.2478L1289.1 1.98451H1365.33L1388.26 51.2478H1307.44ZM1224.43 51.2478L1210.68 1.98451H1286.98L1305.32 51.2478H1224.43ZM1141.44 51.2478L1132.26 1.98451H1208.62L1222.38 51.2478H1141.44ZM975.663 153.741V104.477H1061.41L1066 153.74L975.663 153.741ZM975.663 204.988V155.724H1066.18L1070.77 204.987L975.663 204.988ZM975.663 256.235V206.971H1070.95L1075.54 256.234L975.663 256.235ZM975.663 307.487V258.22H1075.72L1080.31 307.487H975.663ZM975.663 358.734V309.469H1080.49L1085.08 358.732L975.663 358.734ZM975.663 409.981V360.716H1085.26L1089.85 409.978L975.663 409.981ZM975.663 461.227V411.962H1090.04L1094.62 461.225L975.663 461.227ZM975.663 512.474V463.209H1094.81L1099.39 512.472L975.663 512.474ZM975.663 563.721V514.456H1099.58L1104.16 563.719L975.663 563.721ZM1367.56 563.721L1353.8 514.456H1477.81L1496.16 563.719L1367.56 563.721ZM1823.66 461.225L1791.56 411.962H1905.7L1942.38 461.225H1823.66ZM1790.27 409.978L1758.16 360.716H1867.53L1904.22 409.978H1790.27ZM1830.36 307.485L1793.67 258.217H1893.38L1934.66 307.485H1830.36ZM1851.37 204.987L1810.1 155.724H1900.15L1946.01 204.987H1851.37ZM1853.31 102.494L1807.44 53.2308H1887.83L1938.28 102.494H1853.31ZM975.663 51.247V1.98374H1051.87L1056.45 51.247H975.663Z" fill="url(#paint0_linear_92_79)"/>
<defs>
<linearGradient id="paint0_linear_92_79" x1="959.5" y1="0" x2="959.5" y2="566.056" gradientUnits="userSpaceOnUse">
<stop stop-color="#3b3b" stop-opacity="0"/>
<stop offset="1" stop-color="#14172C"/>
</linearGradient>
</defs>
</svg>
