<svg width="36" height="40" viewBox="0 0 36 40" fill="none" xmlns="http://www.w3.org/2000/svg">
<path d="M31.5484 0H4.74844C2.48844 0 0.648438 1.84 0.648438 4.12001V31.1601C0.648438 33.4401 2.48844 35.2801 4.74844 35.2801H27.4284L26.3684 31.5801L28.9284 33.9601L31.3484 36.2001L35.6484 40.0001V4.12001C35.6484 1.84 33.8084 0 31.5484 0ZM23.8284 26.1201C23.8284 26.1201 23.1084 25.2601 22.5084 24.5001C25.1284 23.7601 26.1284 22.1201 26.1284 22.1201C25.3084 22.6601 24.5284 23.0401 23.8284 23.3001C22.8284 23.7201 21.8684 24.0001 20.9284 24.1601C19.0084 24.5201 17.2484 24.4201 15.7484 24.1401C14.6084 23.9201 13.6284 23.6001 12.8084 23.2801C12.3484 23.1001 11.8484 22.8801 11.3484 22.6001C11.2884 22.5601 11.2284 22.5401 11.1684 22.5001C11.1284 22.4801 11.1084 22.4601 11.0884 22.4401C10.7284 22.2401 10.5284 22.1001 10.5284 22.1001C10.5284 22.1001 11.4884 23.7001 14.0284 24.4601C13.4284 25.2201 12.6884 26.1201 12.6884 26.1201C8.26844 25.9801 6.58844 23.0801 6.58844 23.0801C6.58844 16.64 9.46844 11.42 9.46844 11.42C12.3484 9.26002 15.0884 9.32002 15.0884 9.32002L15.2884 9.56002C11.6884 10.6 10.0284 12.18 10.0284 12.18C10.0284 12.18 10.4684 11.94 11.2084 11.6C13.3484 10.66 15.0484 10.4 15.7484 10.34C15.8684 10.32 15.9684 10.3 16.0884 10.3C17.3084 10.14 18.6884 10.1 20.1284 10.26C22.0284 10.48 24.0684 11.04 26.1484 12.18C26.1484 12.18 24.5684 10.68 21.1684 9.64002L21.4484 9.32002C21.4484 9.32002 24.1884 9.26002 27.0684 11.42C27.0684 11.42 29.9484 16.64 29.9484 23.0801C29.9484 23.0801 28.2484 25.9801 23.8284 26.1201Z" fill="#D0DCE8"/>
</svg>
