<?xml version="1.0" encoding="UTF-8" standalone="no"?>
<!DOCTYPE svg PUBLIC "-//W3C//DTD SVG 1.1//EN" "http://www.w3.org/Graphics/SVG/1.1/DTD/svg11.dtd">
<svg width="100%" height="100%" viewBox="0 300 2048 1300" version="1.1" xmlns="http://www.w3.org/2000/svg" xmlns:xlink="http://www.w3.org/1999/xlink" xml:space="preserve" xmlns:serif="http://www.serif.com/" style="fill-rule:evenodd;clip-rule:evenodd;stroke-linejoin:round;stroke-miterlimit:2;">
    <g transform="matrix(1.87562,0,0,1.89269,-1231.8,-505.486)">
        <text x="1011.96px" y="863.533px" style="font-family:'TimesNewRomanPSMT', 'Times New Roman', serif;font-size:576px;fill:rgb(255,226,0);">II</text>
    </g>
    <g transform="matrix(2.05745,0,0,1.89269,-1080.81,-1387.67)">
        <rect x="1009.81" y="948.26" width="28.396" height="10.428" style="fill:rgb(255,226,0);"/>
    </g>
    <g transform="matrix(2.3207,0,0,2.74651,-1301.99,-1174.15)">
        <rect x="964.511" y="530.207" width="27.277" height="47.106" style="fill:rgb(255,226,0);"/>
    </g>
    <g transform="matrix(2.3207,0,0,2.70945,-1185.42,-1154.5)">
        <rect x="964.511" y="530.207" width="27.277" height="47.106" style="fill:rgb(255,226,0);"/>
    </g>
    <g transform="matrix(2.3207,0,0,2.71319,-1301.99,-312.427)">
        <rect x="964.511" y="530.207" width="27.277" height="47.106" style="fill:rgb(255,226,0);"/>
    </g>
    <g transform="matrix(2.3207,0,0,2.65397,-1185.64,-278.913)">
        <rect x="964.511" y="530.207" width="27.277" height="47.106" style="fill:rgb(255,226,0);"/>
    </g>
    <g transform="matrix(1.97719,0,0,1.89269,-998.489,-685.583)">
        <rect x="1009.81" y="948.26" width="28.396" height="10.428" style="fill:rgb(255,226,0);"/>
    </g>
    <g transform="matrix(1.86142,0,0,1.87419,-887.978,-685.261)">
        <path d="M1243.55,610.693C1242.9,611.193 1238.22,614.78 1231.88,619.488C1167.64,667.182 873.133,881.695 811.894,924.782C806.64,928.478 802.462,931.275 801.83,931.697C798.631,933.256 796.797,936.841 797.608,940.447C798.558,944.674 802.785,947.34 807.041,946.396C807.444,946.306 808.255,946.107 809.346,945.514C810.409,944.934 814.483,942.193 821.028,937.588C882.315,894.468 1177.05,679.79 1241.34,632.058C1248.78,626.534 1253.24,623.14 1254.1,622.393C1256.32,620.441 1256.6,618.566 1256.7,618.157C1257.69,613.94 1255.05,609.715 1250.81,608.728C1248.11,608.102 1245.42,608.928 1243.55,610.693Z" style="fill:rgb(255,226,0);"/>
    </g>
    <g id="Ebene1">
    </g>
</svg>
