<svg width="36" height="35" viewBox="0 0 36 35" fill="none" xmlns="http://www.w3.org/2000/svg">
<path d="M18.1484 35C27.8134 35 35.6484 27.165 35.6484 17.5C35.6484 7.83502 27.8134 0 18.1484 0C8.48345 0 0.648438 7.83502 0.648438 17.5C0.648438 27.165 8.48345 35 18.1484 35Z" fill="#D0DCE8"/>
<path fill-rule="evenodd" clip-rule="evenodd" d="M8.57017 17.3153C13.6718 15.0926 17.0736 13.6273 18.7758 12.9193C23.6357 10.8979 24.6456 10.5467 25.3038 10.5351C25.4485 10.5326 25.7722 10.5685 25.9819 10.7386C26.1589 10.8822 26.2077 11.0763 26.231 11.2125C26.2543 11.3487 26.2833 11.659 26.2602 11.9014C25.9969 14.6686 24.8573 21.3838 24.2776 24.483C24.0322 25.7944 23.5492 26.2341 23.0816 26.2772C22.0653 26.3707 21.2936 25.6056 20.3093 24.9603C18.7691 23.9507 17.899 23.3222 16.4039 22.337C14.6761 21.1984 15.7962 20.5726 16.7809 19.5499C17.0385 19.2822 21.5162 15.2095 21.6029 14.84C21.6137 14.7938 21.6238 14.6216 21.5214 14.5306C21.4191 14.4397 21.2681 14.4708 21.1591 14.4955C21.0046 14.5306 18.5441 16.1569 13.7775 19.3745C13.0791 19.854 12.4465 20.0877 11.8797 20.0755C11.2549 20.062 10.0529 19.7222 9.1594 19.4317C8.06346 19.0755 7.19243 18.8871 7.26828 18.2821C7.30778 17.967 7.74175 17.6447 8.57017 17.3153Z" fill="#0E1722"/>
</svg>
